<?xml version="1.0" encoding="UTF-8"?>
<svg width="20px" height="20px" viewBox="0 0 20 20" version="1.1" xmlns="http://www.w3.org/2000/svg" xmlns:xlink="http://www.w3.org/1999/xlink">
    <title>Button/Add/default</title>
    <g id="Page-1" stroke="none" stroke-width="1" fill="none" fill-rule="evenodd">
        <g id="UI-KIT---Desktop" transform="translate(-814.000000, -760.000000)" fill-rule="nonzero">
            <g id="Group-6" transform="translate(561.359375, 756.000000)">
                <g id="Button/Add/default" transform="translate(253.140625, 4.288235)">
                    <rect id="Rectangle" fill="#DEDEDE" x="0" y="0" width="19" height="19"></rect>
                    <path d="M12.7036389,5.62288723 C12.9267956,5.39973049 13.1343641,5.40326144 13.3575209,5.62641818 C13.5806777,5.84957492 13.6276876,6.10062251 13.4045308,6.32377924 L10.2139474,9.51436267 L13.2705407,12.5705412 C13.4713818,12.7713823 13.6015885,13.2158296 13.4096007,13.4078174 C13.217613,13.5998051 12.793267,13.4941284 12.5701103,13.2709716 L9.51393178,10.2143783 L6.54738802,13.1809221 C6.34654695,13.3817631 5.93763479,13.6726803 5.6549906,13.3900361 C5.37234642,13.1073919 5.62333926,12.7031868 5.846496,12.4800301 L8.8130398,9.51348632 L5.71296742,6.41382881 C5.51212635,6.21298774 5.44897638,5.83116852 5.64096413,5.63918077 C5.83295188,5.44719302 6.19024117,5.49024158 6.41339791,5.71339832 L9.51305542,8.8134707 L12.7036389,5.62288723 Z" id="Combined-Shape" fill="#66779E" transform="translate(9.537802, 9.482558) rotate(45.000000) translate(-9.537802, -9.482558) "></path>
                </g>
            </g>
        </g>
    </g>
</svg>