<?xml version="1.0" encoding="UTF-8"?>
<svg width="22px" height="22px" viewBox="0 0 22 22" version="1.1" xmlns="http://www.w3.org/2000/svg" xmlns:xlink="http://www.w3.org/1999/xlink">
    <title>ICON/Status/Info</title>
    <g id="Page-1" stroke="none" stroke-width="1" fill="none" fill-rule="evenodd">
        <g id="UI-KIT---Desktop" transform="translate(-1022.000000, -550.000000)">
            <g id="ICON/Status/Info" transform="translate(1022.000000, 550.000000)">
                <rect id="Rectangle" x="0" y="0" width="22" height="22"></rect>
                <path d="M11,2.75 C13.2781746,2.75 15.3406746,3.6734127 16.8336309,5.16636905 C18.3265873,6.65932541 19.25,8.72182541 19.25,11 C19.25,13.2781746 18.3265873,15.3406746 16.8336309,16.8336309 C15.3406746,18.3265873 13.2781746,19.25 11,19.25 C8.72182541,19.25 6.65932541,18.3265873 5.16636905,16.8336309 C3.6734127,15.3406746 2.75,13.2781746 2.75,11 C2.75,8.72182541 3.6734127,6.65932541 5.16636905,5.16636905 C6.65932541,3.6734127 8.72182541,2.75 11,2.75 Z M11,3.69506002 C8.98279653,3.69506002 7.15656153,4.51269328 5.83462741,5.83462741 C4.51269328,7.15656153 3.69506002,8.98279653 3.69506002,11 C3.69506002,13.0172035 4.51269328,14.8434385 5.83462741,16.1653726 C7.15656153,17.4873067 8.98279653,18.30494 11,18.30494 C13.0172035,18.30494 14.8434385,17.4873067 16.1653726,16.1653726 C17.4873067,14.8434385 18.30494,13.0172035 18.30494,11 C18.30494,8.98279653 17.4873067,7.15656153 16.1653726,5.83462741 C14.8434385,4.51269328 13.0172035,3.69506002 11,3.69506002 Z M11,10.1006869 C11.1966252,10.1006869 11.3746866,10.1800514 11.5034738,10.3089529 C11.6321089,10.437702 11.7114312,10.6157718 11.7114312,10.8130381 L11.7114312,15.4896649 C11.7114312,15.6862962 11.6315891,15.8642906 11.5028056,15.9931883 C11.3739845,16.1221237 11.1961353,16.202016 11,16.202016 C10.8033748,16.202016 10.6253134,16.1226515 10.4965262,15.9937501 C10.3678911,15.8650009 10.2885688,15.6869311 10.2885688,15.4896649 L10.2885688,10.8130381 C10.2885688,10.6164067 10.3684109,10.4384123 10.4971944,10.3095146 C10.6260155,10.1805793 10.8038647,10.1006869 11,10.1006869 Z M11,6.36750133 C11.253587,6.36750133 11.4831347,6.47056829 11.6493671,6.63680073 C11.81578,6.80321355 11.9188304,7.03297926 11.9188304,7.28633175 C11.9188304,7.53991872 11.8157635,7.76946644 11.649531,7.93569888 C11.4831182,8.1021117 11.2533525,8.20516216 11,8.20516216 C10.746413,8.20516216 10.5168653,8.10209521 10.3506329,7.93586276 C10.18422,7.76944995 10.0811696,7.53968424 10.0811696,7.28633175 C10.0811696,7.03274477 10.1842365,6.80319705 10.350469,6.63696461 C10.5168818,6.4705518 10.7466475,6.36750133 11,6.36750133 Z" id="Oval-58" fill="#222020"></path>
            </g>
        </g>
    </g>
</svg>