<?xml version="1.0" encoding="UTF-8"?>
<svg width="22px" height="22px" viewBox="0 0 22 22" version="1.1" xmlns="http://www.w3.org/2000/svg" xmlns:xlink="http://www.w3.org/1999/xlink">
    <title>ICON/Product/Help</title>
    <g id="Page-1" stroke="none" stroke-width="1" fill="none" fill-rule="evenodd">
        <g id="01_מחשבון-תשואות---יומי" transform="translate(-648.000000, -381.000000)">
            <g id="Group-3" transform="translate(189.000000, 375.000000)">
                <g id="Group-8" transform="translate(322.000000, 6.000000)">
                    <g id="ICON/Product/Help" transform="translate(137.000000, 0.000000)">
                        <rect id="Rectangle" x="0" y="0" width="22" height="22"></rect>
                        <path d="M11,2.75 C13.2781746,2.75 15.3406746,3.6734127 16.8336309,5.16636905 C18.3265873,6.65932541 19.25,8.72182541 19.25,11 C19.25,13.2781746 18.3265873,15.3406746 16.8336309,16.8336309 C15.3406746,18.3265873 13.2781746,19.25 11,19.25 C8.72182541,19.25 6.65932541,18.3265873 5.16636905,16.8336309 C3.6734127,15.3406746 2.75,13.2781746 2.75,11 C2.75,8.72182541 3.6734127,6.65932541 5.16636905,5.16636905 C6.65932541,3.6734127 8.72182541,2.75 11,2.75 Z M11,3.69506002 C8.98279653,3.69506002 7.15656153,4.51269328 5.83462741,5.83462741 C4.51269328,7.15656153 3.69506002,8.98279653 3.69506002,11 C3.69506002,13.0172035 4.51269328,14.8434385 5.83462741,16.1653726 C7.15656153,17.4873067 8.98279653,18.30494 11,18.30494 C13.0172035,18.30494 14.8434385,17.4873067 16.1653726,16.1653726 C17.4873067,14.8434385 18.30494,13.0172035 18.30494,11 C18.30494,8.98279653 17.4873067,7.15656153 16.1653726,5.83462741 C14.8434385,4.51269328 13.0172035,3.69506002 11,3.69506002 Z M10.9998652,14.675 C11.1731137,14.675 11.3219591,14.7377271 11.4473452,14.8629104 C11.5728661,14.9885002 11.6346154,15.1384763 11.6346154,15.3120258 C11.6346154,15.4857109 11.5723268,15.6358224 11.4473452,15.7615477 C11.3220939,15.8876793 11.1731137,15.95 10.9998652,15.95 C10.8267515,15.95 10.6777712,15.8876793 10.5529244,15.7619541 C10.4279428,15.6366353 10.3653846,15.4867947 10.3653846,15.3129742 C10.3653846,15.1388827 10.4279428,14.9890421 10.5529244,14.8635878 C10.6780409,14.7377271 10.827156,14.675 10.9998652,14.675 Z M11.1113238,6.6 C11.4809496,6.6 11.8266374,6.65689705 12.1471978,6.77099953 C12.4687991,6.8854104 12.7478769,7.04916288 12.9853236,7.26364471 C13.222919,7.47797234 13.4098134,7.74256675 13.5457096,8.05696534 C13.6823493,8.37182651 13.75,8.7298616 13.75,9.13137898 C13.75,9.47831221 13.7018267,9.78160894 13.6053315,10.0417318 C13.5088363,10.3015462 13.372494,10.5459414 13.196156,10.773838 L13.196156,10.773838 L12.4050141,11.6223595 L12.2734297,11.7455594 C12.1321809,11.8824823 12.0202226,11.9985893 11.9365141,12.0949597 C11.8525082,12.1908674 11.7867904,12.2912468 11.7387658,12.3959435 C11.6902952,12.5004861 11.6565441,12.6169014 11.6398916,12.744727 C11.621901,12.8730152 11.6126827,13.0322961 11.6126827,13.2239575 L11.6126827,13.2239575 L11.6126827,13.5355806 L11.6051739,13.6017652 C11.575961,13.729388 11.4649768,13.825 11.3334561,13.825 L11.3334561,13.825 L10.6261713,13.825 C10.4722845,13.825 10.3464987,13.6948615 10.34635,13.5355806 L10.34635,13.5355806 L10.34635,12.9909725 C10.34635,12.7445728 10.3638946,12.5393426 10.3991325,12.3751275 C10.4339243,12.2107583 10.4870041,12.0625792 10.5574798,11.9301278 C10.6276581,11.7978306 10.7223692,11.6701592 10.8410182,11.546651 C10.9599645,11.4231428 11.1071606,11.2751179 11.2834986,11.1016513 C11.4237066,10.9650367 11.5643607,10.825955 11.7054608,10.6845605 C11.8461149,10.5430117 11.9733875,10.3969914 12.088022,10.2463453 C12.2017645,10.0961617 12.2967729,9.93672664 12.3718578,9.76742322 C12.4460506,9.59873658 12.483816,9.40954233 12.483816,9.19937789 C12.483816,8.98967604 12.4461992,8.7960102 12.3718578,8.61791781 C12.2964755,8.43967123 12.1978987,8.28702062 12.0747893,8.15934919 C11.951085,8.03167776 11.804335,7.93129842 11.6327549,7.85821115 C11.4607287,7.78543227 11.2788894,7.74888864 11.0850069,7.74888864 C10.653975,7.74888864 10.304124,7.89059159 10.0359,8.17338071 C9.82358077,8.39665151 9.67876358,8.67450648 9.60129977,9.00632883 C9.59817742,9.02036035 9.57751049,9.14911113 9.49038229,9.21911454 C9.41990657,9.2757032 9.26066714,9.25180336 9.26066714,9.25180336 L9.26066714,9.25180336 L8.47993299,9.17208581 C8.47993299,9.17208581 8.34567229,9.1723942 8.29214643,9.09884436 C8.22672593,9.00771656 8.25601647,8.87511098 8.25973355,8.85784141 C8.40440205,8.19943925 8.70578238,7.67210075 9.16476664,7.27690526 C9.68813061,6.82573788 10.3372803,6.6 11.1113238,6.6 Z" id="Combined-Shape" fill="#52575C"></path>
                    </g>
                </g>
            </g>
        </g>
    </g>
</svg>