<?xml version="1.0" encoding="UTF-8"?>
<svg width="16px" height="17px" viewBox="0 0 16 17" version="1.1" xmlns="http://www.w3.org/2000/svg" xmlns:xlink="http://www.w3.org/1999/xlink">
    <title>ICON/Product/Stock arrow</title>
    <g id="Page-1" stroke="none" stroke-width="1" fill="none" fill-rule="evenodd">
        <g id="UI-KIT---Desktop" transform="translate(-754.000000, -555.000000)">
            <g id="ICON/Product/Stock-arrow" transform="translate(754.000000, 556.000000)">
                <g transform="translate(8.000000, 8.000000) scale(1, -1) translate(-8.000000, -8.000000) translate(0.000000, -0.000000)">
                    <rect id="Rectangle" x="0" y="0" width="16" height="16"></rect>
                    <path d="M8.39404523,2.5473111 L8.46437438,2.62005733 L11.4643744,6.28672399 C11.6742109,6.54319088 11.6364096,6.9212045 11.3799427,7.13104105 C11.1519721,7.31756242 10.8279646,7.30841927 10.6114025,7.12395984 L10.5356256,7.04660934 L8.59998193,4.68 L8.6,14 C8.6,14.3313708 8.33137085,14.6 8,14.6 C7.70176624,14.6 7.45435325,14.3824104 7.40785299,14.0973231 L7.4,14 L7.39998193,4.68 L5.46437438,7.04660934 C5.27785301,7.27457991 4.95845098,7.32977771 4.70965059,7.19185453 L4.62005733,7.13104105 C4.39208676,6.94451967 4.33688895,6.62511765 4.47481214,6.37631726 L4.53562562,6.28672399 L7.53562562,2.62005733 C7.75386429,2.35332117 8.14446755,2.32907243 8.39404523,2.5473111 Z" id="Combined-Shape" fill="#EA454F"></path>
                </g>
            </g>
        </g>
    </g>
</svg>